<svg id="Layer_1" data-name="Layer 1" xmlns="http://www.w3.org/2000/svg" viewBox="0 0 500 500"><defs><style>.cls-1{fill:#fff;}</style></defs><title>500X500</title><circle class="cls-1" cx="250" cy="200.62" r="65.71"/><path class="cls-1" d="M250.37,285.82c-21.17,0-40.29-6.91-54.5-18L153.71,307.6a113.34,113.34,0,0,0,192.57,1.21l-42.6-40.2C289.59,279.2,271,285.82,250.37,285.82Z"/><path class="cls-1" d="M250-.5C111.93-.5,0,111.43,0,249.5s111.93,250,250,250,250-111.93,250-250S388.07-.5,250-.5Zm0,426a176,176,0,1,1,176-176A176,176,0,0,1,250,425.5Z"/></svg>